<?xml version="1.0"?>
<svg xmlns="http://www.w3.org/2000/svg" viewBox="0 0 30 30" width="240px" height="240px">
  <path fill="hsl(210, 40%, 98%)" d="M 15 3 A 2 2 0 0 0 14.599609 3.0429688 L 14.597656 3.0410156 L 4.6289062 5.0351562 L 4.6269531 5.0371094 A 2 2 0 0 0 3 7 L 3 23 A 2 2 0 0 0 4.6289062 24.964844 L 14.597656 26.958984 A 2 2 0 0 0 15 27 A 2 2 0 0 0 17 25 L 17 5 A 2 2 0 0 0 15 3 z M 19 5 L 19 10.183594 C 19.314 10.071594 19.647 10 20 10 L 20 13 L 23 13 C 23 14.657 21.657 16 20 16 C 19.647 16 19.314 15.928406 19 15.816406 L 19 19 L 24 19 C 24.552 19 25 19.448 25 20 C 25 20.552 24.552 21 24 21 L 19 21 L 19 25 L 25 25 C 26.105 25 27 24.105 27 23 L 27 7 C 27 5.895 26.105 5 25 5 L 19 5 z M 22 8 C 23.657 8 25 9.343 25 11 L 22 11 L 22 8 z M 7 10 L 10.527344 10 C 13.047344 10 14.308594 11.0625 14.308594 13.1875 C 14.308594 14.1915 13.947609 15.002047 13.224609 15.623047 C 12.501609 16.243047 11.535172 16.554688 10.326172 16.554688 L 9.2519531 16.554688 L 9.2519531 20 L 7 20 L 7 10 z M 9.2519531 11.730469 L 9.2519531 14.847656 L 10.138672 14.847656 C 11.337672 14.847656 11.9375 14.322484 11.9375 13.271484 C 11.9375 12.244484 11.338672 11.730469 10.138672 11.730469 L 9.2519531 11.730469 z"/>
</svg>